# AST/ASF file generated using VICON BodyLanguage
# -----------------------------------------------
:version 1.10
:name VICON
:units
  mass 1.0
  length 0.45
  angle deg
:documentation
   .ast/.asf automatically generated from VICON data using
   VICON BodyBuilder and BodyLanguage model FoxedUp or BRILLIANT.MOD
:root
   order TX TY TZ RX RY RZ
   axis XYZ
   position 0 0 0  
   orientation 0 0 0 
:bonedata
  begin
     id 1 
     name lhipjoint
     direction 0.630082 -0.636569 0.44472 
     length 2.82754 
     axis 0 0 0  XYZ
  end
  begin
     id 2 
     name lfemur
     direction 0.34202 -0.939693 0  
     length 7.26371  
     axis 0 0 20  XYZ
    dof rx ry rz
    limits (-160.0 20.0)
           (-70.0 70.0)
           (-60.0 70.0)
  end
  begin
     id 3 
     name ltibia
     direction 0.34202 -0.939693 0   
     length 7.88616   
     axis 0 0 20   XYZ
    dof rx
    limits (-10.0 170.0)
  end
  begin
     id 4 
     name lfoot
     direction 0.0603448 -0.165796 0.984312   
     length 1.77861   
     axis -90 7.62852e-016 20   XYZ
    dof rx rz
    limits (-45.0 90.0)
           (-70.0 20.0)
  end
  begin
     id 5 
     name ltoes
     direction 1.53577e-011 -4.21876e-011 1   
     length 0.902235   
     axis -90 7.62852e-016 20   XYZ
    dof rx
    limits (-90.0 20.0)
  end
  begin
     id 6 
     name rhipjoint
     direction -0.656778 -0.61817 0.431866   
     length 2.9117  
     axis 0 0 0  XYZ 
  end
  begin
     id 7 
     name rfemur
     direction -0.34202 -0.939693 0   
     length 6.81603   
     axis 0 0 -20   XYZ
    dof rx ry rz
    limits (-160.0 20.0)
           (-70.0 70.0)
           (-70.0 60.0)
  end
  begin
     id 8 
     name rtibia
     direction -0.34202 -0.939693 0   
     length 8.05997   
     axis 0 0 -20   XYZ
    dof rx
    limits (-10.0 170.0)
 end
 begin
     id 9 
     name rfoot
     direction -0.0862404 -0.236944 0.967688   
     length 1.84899  
     axis -90 -7.62852e-016 -20   XYZ
    dof rx rz
    limits (-45.0 90.0)
           (-20.0 70.0)
  end
  begin
     id 10 
     name rtoes
     direction -1.53561e-011 -4.21798e-011 1   
     length 0.931579   
     axis -90 -7.62852e-016 -20   XYZ
    dof rx
    limits (-90.0 20.0)
  end
  begin
     id 11 
     name lowerback
     direction -0.0110203 0.991769 -0.127564   
     length 2.05686   
     axis 0 0 0   XYZ
    dof rx ry rz
    limits (-20.0 45.0)
           (-30.0 30.0)
           (-30.0 30.0)
  end
  begin
     id 12 
     name upperback
     direction 0.0109719 0.99993 -0.00432479   
     length 2.06234   
     axis 0 0 0   XYZ
    dof rx ry rz
    limits (-20.0 45.0)
           (-30.0 30.0)
           (-30.0 30.0)
  end
  begin
     id 13 
     name thorax
     direction 0.0173308 0.998351 0.0547306   
     length 2.09856   
     axis 0 0 0   XYZ
    dof rx ry rz
    limits (-20.0 45.0)
           (-30.0 30.0)
           (-30.0 30.0)
  end
  begin
     id 14 
     name lowerneck
     direction -0.0311736 0.989033 0.144366   
     length 1.98151   
     axis 0 0 0   XYZ
    dof rx ry rz
    limits (-20.0 45.0)
           (-30.0 30.0)
           (-30.0 30.0)
  end
  begin
     id 15 
     name upperneck
     direction 0.0421057 0.975772 -0.214698   
     length 2.01457   
     axis 0 0 0   XYZ
    dof rx ry rz
    limits (-20.0 45.0)
           (-30.0 30.0)
           (-30.0 30.0)
  end
  begin
     id 16
     name head
     direction 0.0136911 0.995958 -0.0887718  
     length 2.03562  
     axis 0 0 0   XYZ
    dof rx ry rz
    limits (-20.0 45.0)
           (-30.0 30.0)
           (-30.0 30.0)
  end
  begin
     id 17 
     name lclavicle
     direction 0.915335 0.396201 0.0720134  
     length 4.16217  
     axis 0 0 0   XYZ
    dof ry rz
    limits (-20.0 10.0)
           (0.0 20.0)
  end
  begin
     id 18 
     name lhumerus
     direction 1 -4.48965e-011 6.383e-018   
     length 4.93042   
     axis -180 -30 -90   XYZ
    dof rx ry rz
    limits (-60.0 90.0)
           (-90.0 90.0)
           (-90.0 90.0)
  end
  begin
     id 19
     name lradius
     direction 1 -4.48972e-011 8.8689e-027   
     length 3.68177   
     axis -180 -30 -90   XYZ
    dof rx
    limits (-10.0 170.0)
  end
  begin
     id 20
     name lwrist
     direction 1 -4.48953e-011 1.17971e-026   
     length 1.84089   
     axis -7.69454e-015 90 90   XYZ
    dof ry
    limits (-180.0 0.0)
 end
  begin
     id 21 
     name lhand
     direction 1 -4.49027e-011 2.35802e-026   
     length 0.721479   
     axis -1.50533e-014 90 90   XYZ
    dof rx rz
    limits (-90.0 90.0)
           (-45.0 45.0)
  end
  begin
     id 22 
     name lfingers
     direction 1 -4.48915e-011 4.72027e-026   
     length 0.581675   
     axis -3.01059e-014 90 90   XYZ
    dof rx
    limits (0.0 90.0)
  end
  begin
     id 23
     name lthumb
     direction 0.707107 -6.34948e-011 0.707107   
     length 0.835172   
     axis -90 45 -5.12164e-014   XYZ
    dof rx rz
    limits (-45.0 45.0)
           (-45.0 45.0)
  end
  begin
     id 24 
     name rclavicle
     direction -0.882781 0.469197 0.0234974   
     length 3.95647  
     axis 0 0 0   XYZ 
    dof ry rz
    limits (-10.0 20.0)
           (-20.0 0.0)
  end
  begin
     id 25 
     name rhumerus
     direction -1 -4.48965e-011 -1.54906e-018  
     length 5.07905   
     axis -180 30 90   XYZ
    dof rx ry rz
    limits (-90.0 60.0)
           (-90.0 90.0)
           (-90.0 90.0)
  end
  begin
     id 26 
     name rradius
     direction -1 -4.48972e-011 5.47489e-027   
     length 3.54394   
     axis -180 30 90   XYZ
    dof rx
    limits (-10.0 170.0)
  end
  begin
     id 27 
     name rwrist
     direction -1 -4.48955e-011 1.17969e-026   
     length 1.77197   
     axis -7.69454e-015 -90 -90   XYZ
    dof ry
    limits (-180.0 0.0)
  end
  begin
     id 28
     name rhand
     direction -1 -4.48982e-011 2.35888e-026   
     length 0.681156   
     axis -1.50533e-014 -90 -90   XYZ
    dof rx rz
    limits (-90.0 90.0)
           (-45.0 45.0)
  end
  begin
     id 29
     name rfingers
     direction -1 -4.48955e-011 4.71877e-026   
     length 0.549165   
     axis -3.01059e-014 -90 -90   XYZ
    dof rx
    limits (0.0 90.0)
  end
  begin
     id 30
     name rthumb
     direction -0.707107 -6.3491e-011 0.707107   
     length 0.788495   
     axis -90 -45 5.12164e-014   XYZ
    dof rx rz
    limits (-45.0 45.0)
           (-45.0 45.0)
  end
:hierarchy
  begin
    root lhipjoint rhipjoint lowerback
    lhipjoint lfemur
    lfemur ltibia
    ltibia lfoot
    lfoot ltoes
    rhipjoint rfemur
    rfemur rtibia
    rtibia rfoot
    rfoot rtoes
    lowerback upperback
    upperback thorax
    thorax lowerneck lclavicle rclavicle
    lowerneck upperneck
    upperneck head
    lclavicle lhumerus
    lhumerus lradius
    lradius lwrist
    lwrist lhand lthumb
    lhand lfingers
    rclavicle rhumerus
    rhumerus rradius
    rradius rwrist
    rwrist rhand rthumb
    rhand rfingers
  end

#!OML:ASF H:\Bending\Project 1\Capture day 1\Session 1\Subject.ASF
:FULLY-SPECIFIED
:DEGREES
191
root -9.71049 17.8888 -16.6624 151.211 91.7046 147.591
lowerback 1.03093 0.84039 0.492517
upperback -2.69109 1.21764 1.64169
thorax -3.36875 0.632255 1.36324
lowerneck -23.0228 -4.32328 -6.68158
upperneck 30.0297 -4.90905 4.75282
head 14.5112 -2.03904 2.18368
rclavicle -3.18055e-015 5.1684e-015
rhumerus -30.3261 21.7672 -91.0497
rradius 99.2256
rwrist -8.6139
rhand -36.6004 -45.4891
rfingers 7.12502
rthumb -9.68907 -75.2463
lclavicle -3.18055e-015 5.1684e-015
lhumerus -29.7293 -34.2818 98.9706
lradius 95.4814
lwrist 58.5638
lhand -38.843 18.3614
lfingers 7.12502
lthumb -11.8522 48.006
rfemur 7.09559 -1.71668 12.5816
rtibia 2.06736e-014
rfoot -9.82201 -19.1291
rtoes -0.967042
lfemur -6.18822 -16.3112 -12.1979
ltibia 22.2146
lfoot -24.4326 11.8694
ltoes -14.351
192
root -9.70546 17.896 -16.6732 153.627 91.7697 149.835
lowerback 1.06633 0.857543 0.512566
upperback -2.778 1.24565 1.66173
thorax -3.47936 0.646991 1.37036
lowerneck -23.1085 -4.31791 -6.6427
upperneck 30.128 -4.85473 4.58754
head 14.5629 -2.03376 2.12051
rclavicle 3.08116e-015 -7.95139e-016
rhumerus -29.2208 21.9111 -90.6913
rradius 98.858
rwrist -8.82612
rhand -36.3319 -45.2441
rfingers 7.12502
rthumb -9.43005 -75.0131
lclavicle 3.08116e-015 -7.95139e-016
lhumerus -29.095 -33.8751 98.5963
lradius 95.6155
lwrist 58.7198
lhand -38.7379 18.7249
lfingers 7.12502
lthumb -11.7509 48.3752
rfemur 6.86594 -1.65065 12.5366
rtibia -4.77083e-015
rfoot -9.63403 -19.2044
rtoes -1.32901
lfemur -6.35367 -15.7805 -12.1683
ltibia 22.155
lfoot -24.2829 11.3995
ltoes -13.9786
193
root -9.70091 17.902 -16.6832 156.385 91.8668 152.449
lowerback 1.12815 0.876781 0.493426
upperback -2.85374 1.27625 1.70461
thorax -3.59491 0.664405 1.42248
lowerneck -23.2911 -4.26033 -6.43994
upperneck 30.3104 -4.70925 4.20855
head 14.6547 -2.00009 1.95932
rclavicle 1.73937e-016 -7.15625e-015
rhumerus -28.1452 22.144 -90.3146
rradius 98.441
rwrist -9.09912
rhand -36.1067 -45.1292
rfingers 7.12502
rthumb -9.21278 -74.9079
lclavicle 1.73937e-016 -7.15625e-015
lhumerus -28.4131 -33.4928 98.2002
lradius 95.7096
lwrist 58.7718
lhand -38.708 19.0646
lfingers 7.12502
lthumb -11.7221 48.7166
rfemur 6.65388 -1.54772 12.4931
rtibia 2.38542e-014
rfoot -9.42167 -19.283
rtoes -1.77948
lfemur -6.4932 -15.2927 -12.1582
ltibia 22.1234
lfoot -24.158 10.9805
ltoes -13.4767
194
root -9.69706 17.9073 -16.6924 159.192 91.9852 155.139
lowerback 1.2004 0.892756 0.461105
upperback -2.90758 1.30147 1.74887
thorax -3.69402 0.679337 1.48359
lowerneck -23.5343 -4.15298 -6.11253
upperneck 30.5324 -4.49547 3.711
head 14.7668 -1.93959 1.74069
rclavicle -2.17296e-014 -2.5842e-014
rhumerus -27.1044 22.4084 -89.9634
rradius 97.9745
rwrist -9.44266
rhand -35.8997 -45.1334
rfingers 7.12502
rthumb -9.01306 -74.9209
lclavicle -2.17296e-014 -2.5842e-014
lhumerus -27.6653 -33.1742 97.7428
lradius 95.7537
lwrist 58.7079
lhand -38.7565 19.3518
lfingers 7.12502
lthumb -11.7688 49.0012
rfemur 6.46263 -1.42055 12.4502
rtibia 7.95139e-015
rfoot -9.18609 -19.3724
rtoes -2.33827
lfemur -6.60975 -14.8441 -12.1667
ltibia 22.1187
lfoot -24.0136 10.6523
ltoes -13.0699
195
root -9.69403 17.9127 -16.7007 161.655 92.1043 157.505
lowerback 1.26441 0.903008 0.452055
upperback -2.93572 1.3177 1.77059
thorax -3.7606 0.68839 1.50911
lowerneck -23.7724 -4.02435 -5.76409
upperneck 30.7267 -4.27438 3.25616
head 14.8684 -1.86807 1.53653
rclavicle -6.22444e-015 -2.14687e-014
rhumerus -26.1046 22.6745 -89.662
rradius 97.5071
rwrist -9.90952
rhand -35.6718 -45.2487
rfingers 7.12502
rthumb -8.7931 -75.0455
lclavicle -6.22444e-015 -2.14687e-014
lhumerus -26.8391 -32.9449 97.1943
lradius 95.7443
lwrist 58.5536
lhand -38.8601 19.5418
lfingers 7.12502
lthumb -11.8687 49.1855
rfemur 6.29022 -1.29393 12.4105
rtibia -2.70347e-014
rfoot -8.94464 -19.4726
rtoes -2.95827
lfemur -6.71622 -14.4164 -12.1823
ltibia 22.1327
lfoot -23.8118 10.4111
ltoes -12.9398
196
root -9.69172 17.9188 -16.7082 163.491 92.204 159.253
lowerback 1.30698 0.909685 0.49504
upperback -2.9424 1.32813 1.75532
thorax -3.79051 0.692021 1.46806
lowerneck -23.9388 -3.91796 -5.51654
upperneck 30.833 -4.11861 2.99585
head 14.929 -1.80919 1.41665
rclavicle -1.26974e-014 4.77083e-015
rhumerus -25.2445 22.6519 -89.5159
rradius 97.1199
rwrist -10.3743
rhand -35.2913 -45.2709
rfingers 7.12502
rthumb -8.42592 -75.0829
lclavicle -1.26974e-014 4.77083e-015
lhumerus -25.9306 -32.8037 96.5496
lradius 95.6791
lwrist 58.3611
lhand -38.9732 19.6031
lfingers 7.12502
lthumb -11.9778 49.2404
rfemur 6.13192 -1.19169 12.3794
rtibia 1.59028e-014
rfoot -8.7244 -19.5753
rtoes -3.54962
lfemur -6.82656 -13.9915 -12.1896
ltibia 22.1536
lfoot -23.543 10.2184
ltoes -13.1289
197
root -9.68983 17.9259 -16.7149 164.595 92.2748 160.267
lowerback 1.32617 0.918622 0.596282
upperback -2.93741 1.34128 1.70539
thorax -3.79288 0.694471 1.35895
lowerneck -23.9914 -3.87167 -5.46054
upperneck 30.8176 -4.07863 3.01363
head 14.9298 -1.78308 1.42172
rclavicle 3.15571e-015 9.93923e-015
rhumerus -24.3593 22.5694 -89.435
rradius 96.6539
rwrist -10.9887
rhand -34.9173 -45.2746
rfingers 7.12502
rthumb -8.06499 -75.1007
lclavicle 3.15571e-015 9.93923e-015
lhumerus -24.943 -32.7222 95.8309
lradius 95.5509
lwrist 58.1873
lhand -39.0346 19.5433
lfingers 7.12502
lthumb -12.037 49.1771
rfemur 5.98391 -1.12519 12.3622
rtibia -2.54444e-014
rfoot -8.54939 -19.6687
rtoes -4.03243
lfemur -6.94756 -13.5643 -12.177
ltibia 22.1713
lfoot -23.2332 10.0272
ltoes -13.5399
198
root -9.68797 17.9335 -16.7209 165.071 92.3207 160.648
lowerback 1.33224 0.936476 0.734808
upperback -2.93173 1.36666 1.63769
thorax -3.78593 0.701609 1.21034
lowerneck -23.9256 -3.89886 -5.61984
upperneck 30.681 -4.16018 3.29987
head 14.8707 -1.79641 1.55057
rclavicle 1.1573e-014 1.70955e-014
rhumerus -23.4774 22.3694 -89.4262
rradius 96.1656
rwrist -11.6603
rhand -34.6161 -45.2343
rfingers 7.12502
rthumb -7.77421 -75.0714
lclavicle 1.1573e-014 1.70955e-014
lhumerus -23.8852 -32.6574 95.0808
lradius 95.3456
lwrist 58.0728
lhand -38.9846 19.4177
lfingers 7.12502
lthumb -11.9888 49.0543
rfemur 5.84664 -1.08981 12.3591
rtibia -1.59028e-014
rfoot -8.42937 -19.7431
rtoes -4.37856
lfemur -7.07546 -13.1471 -12.1446
ltibia 22.1818
lfoot -22.933 9.80897
ltoes -14.0068
199
root -9.68581 17.9406 -16.7262 165.187 92.3535 160.67
lowerback 1.3438 0.967294 0.872809
upperback -2.93299 1.40997 1.57441
thorax -3.78952 0.717867 1.06565
lowerneck -23.7762 -3.98291 -5.93833
upperneck 30.4592 -4.32382 3.75555
head 14.7706 -1.84008 1.75967
rclavicle -4.43538e-015 -1.70955e-014
rhumerus -22.6355 22.0928 -89.4643
rradius 95.7068
rwrist -12.3065
rhand -34.5149 -45.1908
rfingers 7.12502
rthumb -7.67654 -75.0315
lclavicle -4.43538e-015 -1.70955e-014
lhumerus -22.7705 -32.5717 94.3462
lradius 95.0454
lwrist 58.0322
lhand -38.785 19.3092
lfingers 7.12502
lthumb -11.7964 48.957
rfemur 5.72652 -1.07058 12.3634
rtibia -3.02153e-014
rfoot -8.357 -19.7945
rtoes -4.61657
lfemur -7.1988 -12.7642 -12.105
ltibia 22.19
lfoot -22.6941 9.56724
ltoes -14.3956
200
root -9.68336 17.9461 -16.7309 165.251 92.3827 160.655
lowerback 1.3802 1.00979 0.973794
upperback -2.94293 1.4694 1.53251
thorax -3.81759 0.743655 0.96244
lowerneck -23.6063 -4.08736 -6.29798
upperneck 30.2147 -4.50528 4.22413
head 14.6612 -1.89498 1.9765
rclavicle -3.30604e-014 -2.10712e-014
rhumerus -21.8272 21.7261 -89.5537
rradius 95.2794
rwrist -12.7919
rhand -34.6749 -45.185
rfingers 7.12502
rthumb -7.83099 -75.02
lclavicle -3.30604e-014 -2.10712e-014
lhumerus -21.6143 -32.448 93.6623
lradius 94.6357
lwrist 58.0592
lhand -38.4382 19.2878
lfingers 7.12502
lthumb -11.4619 48.9545
rfemur 5.63396 -1.05353 12.3647
rtibia 1.74931e-014
rfoot -8.31467 -19.8253
rtoes -4.79836
lfemur -7.30596 -12.4405 -12.0751
ltibia 22.2081
lfoot -22.5467 9.32754
ltoes -14.6485
201
root -9.68095 17.9494 -16.7349 165.453 92.4081 160.804
lowerback 1.4528 1.05702 1.01842
upperback -2.95772 1.53532 1.51783
thorax -3.87323 0.77475 0.917689
lowerneck -23.4844 -4.17456 -6.56829
upperneck 30.0158 -4.64513 4.55158
head 14.5748 -1.94177 2.12755
rclavicle 2.51587e-014 1.03368e-014
rhumerus -21.0349 21.2735 -89.6971
rradius 94.87
rwrist -13.0168
rhand -35.0783 -45.2627
rfingers 7.12502
rthumb -8.22037 -75.0828
lclavicle 2.51587e-014 1.03368e-014
lhumerus -20.4334 -32.2907 93.044
lradius 94.1099
lwrist 58.1404
lhand -37.9929 19.3682
lfingers 7.12502
lthumb -11.0324 49.0583
rfemur 5.57762 -1.03529 12.3547
rtibia -1.59028e-014
rfoot -8.28604 -19.8417
rtoes -4.95631
lfemur -7.39368 -12.1899 -12.067
ltibia 22.2503
lfoot -22.4895 9.11731
ltoes -14.792
202
root -9.67919 17.9504 -16.7383 165.762 92.4196 161.087
lowerback 1.55996 1.09865 1.00996
upperback -2.97067 1.59347 1.52598
thorax -3.94846 0.803855 0.925699
lowerneck -23.4529 -4.22166 -6.66871
upperneck 29.9032 -4.71266 4.65729
head 14.5295 -1.96869 2.17282
rclavicle 8.75895e-015 5.56597e-015
rhumerus -20.2297 20.7368 -89.8976
rradius 94.4533
rwrist -12.9376
rhand -35.6141 -45.4458
rfingers 7.12502
rthumb -8.73746 -75.2449
lclavicle 8.75895e-015 5.56597e-015
lhumerus -19.2433 -32.1154 92.487
lradius 93.4713
lwrist 58.2691
lhand -37.5331 19.5019
lfingers 7.12502
lthumb -10.5889 49.2152
rfemur 5.55867 -1.02541 12.3322
rtibia 1.59028e-015
rfoot -8.26491 -19.8497
rtoes -5.0794
lfemur -7.47075 -12.0063 -12.0791
ltibia 22.3263
lfoot -22.4917 8.9475
ltoes -14.9092
203
root -9.67877 17.9498 -16.7409 165.948 92.4034 161.267
lowerback 1.68721 1.1248 0.968802
upperback -2.97591 1.63036 1.54819
thorax -4.02823 0.823538 0.96707
lowerneck -23.5085 -4.22713 -6.60603
upperneck 29.8689 -4.71336 4.5696
head 14.5214 -1.97477 2.12437
rclavicle -2.13445e-014 -1.19271e-014
rhumerus -19.3851 20.1234 -90.1489
rradius 94.0076
rwrist -12.5809
rhand -36.1224 -45.7131
rfingers 7.12502
rthumb -9.22795 -75.4911
lclavicle -2.13445e-014 -1.19271e-014
lhumerus -18.0571 -31.9341 91.9765
lradius 92.7301
lwrist 58.4504
lhand -37.1488 19.6029
lfingers 7.12502
lthumb -10.2182 49.3347
rfemur 5.56732 -1.04068 12.3052
rtibia 2.38542e-014
rfoot -8.25731 -19.8521
rtoes -5.11918
lfemur -7.55575 -11.8648 -12.0962
ltibia 22.4369
lfoot -22.5081 8.80543
ltoes -15.0789
204
root -9.68018 17.9488 -16.7425 165.723 92.3503 161.039
lowerback 1.81332 1.12995 0.918901
upperback -2.97088 1.63867 1.57757
thorax -4.09693 0.829388 1.02226
lowerneck -23.6095 -4.20768 -6.46016
upperneck 29.8647 -4.67932 4.39603
head 14.5284 -1.9683 2.03333
rclavicle 4.24281e-015 -7.15625e-015
rhumerus -18.4877 19.4538 -90.4288
rradius 93.5229
rwrist -12.0358
rhand -36.4661 -45.9966
rfingers 7.12502
rthumb -9.5595 -75.7598
lclavicle 4.24281e-015 -7.15625e-015
lhumerus -16.8841 -31.7477 91.4982
lradius 91.8982
lwrist 58.6948
lhand -36.9014 19.5955
lfingers 7.12502
lthumb -9.97957 49.3389
rfemur 5.58517 -1.09503 12.2854
rtibia -2.22639e-014
rfoot -8.27606 -19.8475
rtoes -5.01914
lfemur -7.6689 -11.7312 -12.0973
ltibia 22.573
lfoot -22.4967 8.66394
ltoes -15.3375
